<svg width="34" height="34" viewBox="0 0 34 34" fill="none" xmlns="http://www.w3.org/2000/svg">
<rect width="34" height="34" rx="4" fill="white"/>
<path d="M23.6287 21.2988C24.8124 20.1151 24.7426 18.1489 23.4243 17.0574C22.2755 16.1055 20.5685 16.2475 19.5144 17.3041L18.408 18.4105L17.2417 19.5768C15.906 20.9125 14.1492 21.5804 12.3948 21.5804C10.6404 21.5804 8.88359 20.9125 7.54788 19.5768C4.87398 16.9029 4.87398 12.5544 7.54788 9.88296L8.71413 8.71671C10.8224 6.60849 9.32965 3.00507 6.34674 3.00507C4.49768 3.00507 3 4.50275 3 6.35181L3 27.6533C3 29.5024 4.49768 31.0001 6.34674 31.0001H12.5443C13.4315 31.0001 14.2837 30.6487 14.9117 30.0207L23.6287 21.2988Z" fill="#C40813"/>
<path d="M21.4504 3C20.5633 3 20.0699 3.2492 18.5747 4.74439L10.366 12.6963C9.24713 13.8152 9.24713 15.6344 10.366 16.7533C11.4849 17.8722 13.3041 17.8722 14.423 16.7533L15.5892 15.587L16.6533 14.5255C19.2899 11.8889 23.5885 11.7195 26.3023 14.2787C29.1232 16.9377 29.1731 21.3959 26.4518 24.1171L25.2856 25.2834C23.1773 27.3916 24.67 30.995 27.653 30.995C29.502 30.995 30.9997 29.4973 30.9997 27.6483V6.34674C30.9997 4.49768 29.502 3 27.653 3L21.4504 3Z" fill="#FFCD11"/>
</svg>
